<svg xmlns="http://www.w3.org/2000/svg" width="1000" height="650" viewBox="0 0 1000 650">
  <g>
    <path d="M195.588,282.244h-.507V420.319H170.03V229.681h34.92l28.088,114.11h.506V229.681h24.8V420.319H229.748Z" fill="#d91e26"/>
    <path d="M306.167,307.809h38.209v26.485H306.167v54.292h48.077V415.07H278.332V229.681h75.912v26.484H306.167Z" fill="#d91e26"/>
    <path d="M363.358,229.681h86.033V255.31h-29.1V409.087H392.456V255.31h-29.1Z" fill="#d91e26"/>
    <path d="M489.372,308.376H525.3v25.305H489.372V406.81H461.539V229.681h73.633v25.3h-45.8Z" fill="#d91e26"/>
    <path d="M548.585,229.681h27.834V383.458h45.8v25.629H548.585Z" fill="#d91e26"/>
    <path d="M660.937,229.681v141.2c0,13.074,5.566,17.78,14.423,17.78s14.421-4.706,14.421-17.78v-141.2H716.1V369.05c0,29.285-14.171,46.02-41.5,46.02s-41.5-16.735-41.5-46.02V229.681Z" fill="#d91e26"/>
    <path d="M827.946,229.681l-29.1,92.6,31.124,98.041H800.617L778.1,344.88h-.508l-22.774,75.439H728.752l31.126-98.041-29.1-92.6h28.844l20.75,70.264h.508l21.255-70.264Z" fill="#d91e26"/>
  </g>
</svg>
